<svg width="110" height="110" viewBox="0 0 110 110" fill="none" xmlns="http://www.w3.org/2000/svg">
<path d="M75 0H35C15.67 0 0 15.67 0 35V75C0 94.33 15.67 110 35 110H75C94.33 110 110 94.33 110 75V35C110 15.67 94.33 0 75 0Z" fill="url(#paint0_linear_1098_3112)"/>
<path d="M72.5583 71.6422C72.4945 71.8394 72.1668 72.2917 71.526 72.2917H39.8638C39.2172 72.2917 38.8954 71.8394 38.8316 71.6422C38.7649 71.4509 38.5735 70.9348 38.962 70.4158L41.2787 67.5772C43.2823 65.1242 44.3754 62.0247 44.3754 58.8614V53.564C44.3754 47.304 49.4697 42.2677 55.6601 42.2677C61.8534 42.2677 66.9478 47.3678 66.9478 53.564V58.8614C66.9478 62.0247 68.0409 65.1242 70.0444 67.5772L72.364 70.4158C72.8134 70.8681 72.6191 71.3871 72.5583 71.6422ZM55.6601 80.1C53.2767 80.1 51.279 78.3574 50.8905 76.0349H60.4327C60.047 78.3574 58.0493 80.1 55.6601 80.1ZM73.0106 65.1242C71.526 63.3149 70.7519 61.0534 70.7519 58.7309V53.4335C70.7519 45.7499 65.0167 39.4233 57.597 38.4578V35.8105C57.597 34.7725 56.759 33.9346 55.7239 33.9346C54.6946 33.9346 53.8566 34.7725 53.8566 35.8105V38.5244C46.4398 39.4233 40.7017 45.8166 40.7017 53.5002V58.7976C40.7017 61.12 39.9305 63.3816 38.443 65.1909L36.1264 68.0295C34.8999 69.5111 34.6389 71.5176 35.4769 73.2601C36.3148 74.9998 37.9936 76.1016 39.9305 76.1016H47.1531C47.4749 80.4277 51.1485 83.9099 55.6601 83.9099C60.1775 83.9099 63.8511 80.4277 64.2368 76.0349H71.4594C73.3904 76.0349 75.0692 74.9389 75.9071 73.1964C76.7509 71.4509 76.4899 69.4531 75.2635 67.9628L73.0106 65.1242Z" fill="white"/>
<path d="M69.6528 35.161C68.8207 34.5173 67.6551 34.7145 67.0114 35.4887C66.3648 36.3266 66.562 37.4864 67.3333 38.1301C70.6213 40.7135 73.0713 44.3321 74.234 48.3333C74.4921 49.1713 75.1995 49.6903 76.0375 49.6903C76.2318 49.6903 76.3564 49.6903 76.5536 49.6236C77.5829 49.3684 78.1657 48.3333 77.8439 47.304C76.5536 42.5228 73.6541 38.1968 69.6528 35.161Z" fill="white"/>
<path d="M37.0891 48.3337C38.188 44.3324 40.6381 40.7138 43.9899 38.1304C44.8278 37.4867 44.9583 36.3269 44.3117 35.489C43.668 34.6481 42.5111 34.5177 41.6703 35.1614C37.6719 38.1971 34.7695 42.5231 33.4155 47.3044C33.1603 48.3337 33.7373 49.3688 34.7057 49.6239C34.9 49.6906 35.0247 49.6906 35.2218 49.6906C36.0598 49.6906 36.834 49.1716 37.0891 48.3337Z" fill="white"/>
<path d="M86.2902 48.0113C84.8695 40.1363 80.5493 33.1602 74.0399 28.3847C73.202 27.7382 72.0422 27.9324 71.3956 28.7733C70.7519 29.6112 70.9433 30.7739 71.7813 31.4176C77.5222 35.6131 81.3263 41.7484 82.5528 48.6608C82.7471 49.5596 83.5154 50.2091 84.423 50.2091C84.5505 50.2091 84.6143 50.2091 84.7448 50.2091C85.7741 50.0119 86.4207 49.0464 86.2902 48.0113Z" fill="white"/>
<path d="M39.5389 31.4176C40.3768 30.7739 40.5711 29.6112 39.9303 28.7733C39.2808 27.9324 38.124 27.7382 37.2831 28.3847C30.7709 33.1602 26.4536 40.1363 25.0328 48.0113C24.8357 49.0464 25.5489 50.0119 26.5782 50.2091C26.7087 50.2091 26.7754 50.2091 26.9001 50.2091C27.8047 50.2091 28.5818 49.5596 28.7731 48.6608C29.9967 41.7484 33.8675 35.6131 39.5389 31.4176Z" fill="white"/>
<defs>
<linearGradient id="paint0_linear_1098_3112" x1="98.5" y1="99.5" x2="22.5" y2="1.72786e-06" gradientUnits="userSpaceOnUse">
<stop stop-color="#FF9066"/>
<stop offset="1" stop-color="#FF9066" stop-opacity="0.5"/>
</linearGradient>
</defs>
</svg>
