<svg width="22" height="21" viewBox="0 0 22 21" fill="none" xmlns="http://www.w3.org/2000/svg">
<path fill-rule="evenodd" clip-rule="evenodd" d="M10.9325 0.423856C5.28355 0.423856 0.687562 4.99013 0.687562 10.6052C0.687562 16.2192 5.28355 20.786 10.9325 20.786C16.5815 20.786 21.1776 16.2192 21.1776 10.6052C21.1776 4.99013 16.5815 0.423856 10.9325 0.423856ZM16.6441 7.20977L10.3395 14.2585C10.1843 14.4314 9.96795 14.5207 9.74999 14.5207C9.57706 14.5207 9.4033 14.4643 9.25791 14.3499L5.31744 11.2166C4.97777 10.9468 4.92268 10.4536 5.19455 10.1153C5.4661 9.77812 5.96251 9.72283 6.30218 9.99323L9.65819 12.6612L15.4659 6.16865C15.7544 5.8446 16.2532 5.81558 16.5783 6.10352C16.9038 6.3909 16.9333 6.88573 16.6441 7.20977Z" fill="#F4B223"/>
</svg>
