<svg width="27" height="27" viewBox="0 0 27 27" fill="none" xmlns="http://www.w3.org/2000/svg">
<path d="M4.88912 0C2.18076 0 0 2.18076 0 4.88912V21.8868C0 24.5952 2.18076 26.7759 4.88912 26.7759H14.1017V16.3082H11.3338V12.5395H14.1017V9.31971C14.1017 6.79005 15.7372 4.4674 19.5046 4.4674C21.03 4.4674 22.1579 4.61384 22.1579 4.61384L22.0692 8.13321C22.0692 8.13321 20.9188 8.12234 19.6636 8.12234C18.305 8.12234 18.0871 8.74831 18.0871 9.78748V12.5395H22.1772L21.9989 16.3083H18.0871V26.776H21.8868C24.5952 26.776 26.7759 24.5952 26.7759 21.8869V4.88915C26.7759 2.18079 24.5952 2.67759e-05 21.8868 2.67759e-05H4.8891L4.88912 0Z" fill="white"/>
</svg>
