<svg width="34" height="34" viewBox="0 0 34 34" fill="none" xmlns="http://www.w3.org/2000/svg">
<g clip-path="url(#clip0_1098_3270)">
<path d="M17.0991 6.43822C20.8252 6.43822 21.2665 6.45391 22.7319 6.51667C24.0938 6.57419 24.8292 6.79384 25.3195 6.97688C25.9677 7.21744 26.4362 7.51031 26.9211 7.97575C27.4113 8.44642 27.711 8.89094 27.9615 9.51327C28.1522 9.98394 28.381 10.6952 28.4409 11.9974C28.5063 13.4094 28.5227 13.833 28.5227 17.4048C28.5227 20.9819 28.5063 21.4055 28.4409 22.8123C28.381 24.1197 28.1522 24.8258 27.9615 25.2964C27.711 25.9188 27.4059 26.3685 26.9211 26.8339C26.4308 27.3046 25.9677 27.5922 25.3195 27.8328C24.8292 28.0159 24.0883 28.2355 22.7319 28.293C21.261 28.3558 20.8198 28.3715 17.0991 28.3715C13.3729 28.3715 12.9317 28.3558 11.4663 28.293C10.1044 28.2355 9.36897 28.0159 8.87869 27.8328C8.23043 27.5922 7.76194 27.2994 7.2771 26.8339C6.78682 26.3633 6.48721 25.9188 6.23662 25.2964C6.04595 24.8258 5.81715 24.1145 5.75723 22.8123C5.69186 21.4003 5.67552 20.9767 5.67552 17.4048C5.67552 13.8277 5.69186 13.4041 5.75723 11.9974C5.81715 10.6899 6.04595 9.98394 6.23662 9.51327C6.48721 8.89094 6.79227 8.44119 7.2771 7.97575C7.76739 7.50508 8.23043 7.21744 8.87869 6.97688C9.36897 6.79384 10.1098 6.57419 11.4663 6.51667C12.9317 6.45391 13.3729 6.43822 17.0991 6.43822ZM17.0991 4.02734C13.313 4.02734 12.8391 4.04303 11.3519 4.10579C9.87015 4.16854 8.85145 4.39865 7.96895 4.72812C7.04831 5.07328 6.2693 5.52826 5.49575 6.2761C4.71674 7.01872 4.2428 7.76656 3.88326 8.64514C3.54007 9.49758 3.30037 10.4703 3.235 11.8928C3.16963 13.3257 3.15329 13.7807 3.15329 17.4153C3.15329 21.0499 3.16963 21.5049 3.235 22.9326C3.30037 24.3551 3.54007 25.333 3.88326 26.1802C4.2428 27.0641 4.71674 27.8119 5.49575 28.5545C6.2693 29.2971 7.04831 29.7573 7.9635 30.0973C8.85145 30.4267 9.8647 30.6568 11.3464 30.7196C12.8336 30.7823 13.3076 30.798 17.0936 30.798C20.8797 30.798 21.3536 30.7823 22.8408 30.7196C24.3226 30.6568 25.3413 30.4267 26.2238 30.0973C27.139 29.7573 27.918 29.2971 28.6915 28.5545C29.4651 27.8119 29.9445 27.0641 30.2986 26.1855C30.6418 25.333 30.8815 24.3603 30.9468 22.9378C31.0122 21.5101 31.0285 21.0552 31.0285 17.4205C31.0285 13.7859 31.0122 13.3309 30.9468 11.9032C30.8815 10.4808 30.6418 9.50281 30.2986 8.6556C29.9554 7.76656 29.4814 7.01872 28.7024 6.2761C27.9289 5.53349 27.1499 5.07328 26.2347 4.73335C25.3467 4.40388 24.3335 4.17377 22.8517 4.11102C21.3591 4.04303 20.8851 4.02734 17.0991 4.02734Z" fill="white"/>
<path d="M17.0988 10.5381C13.1439 10.5381 9.93527 13.6184 9.93527 17.4151C9.93527 21.2118 13.1439 24.2921 17.0988 24.2921C21.0538 24.2921 24.2624 21.2118 24.2624 17.4151C24.2624 13.6184 21.0538 10.5381 17.0988 10.5381ZM17.0988 21.876C14.533 21.876 12.4521 19.8783 12.4521 17.4151C12.4521 14.9519 14.533 12.9542 17.0988 12.9542C19.6646 12.9542 21.7456 14.9519 21.7456 17.4151C21.7456 19.8783 19.6646 21.876 17.0988 21.876Z" fill="white"/>
<path d="M26.2183 10.2664C26.2183 11.1554 25.4665 11.8719 24.5459 11.8719C23.6198 11.8719 22.8735 11.1502 22.8735 10.2664C22.8735 9.37735 23.6252 8.66089 24.5459 8.66089C25.4665 8.66089 26.2183 9.38258 26.2183 10.2664Z" fill="white"/>
</g>
<defs>
<clipPath id="clip0_1098_3270">
<rect width="27.8916" height="26.7759" fill="white" transform="translate(3.15305 4.02905)"/>
</clipPath>
</defs>
</svg>
