<svg width="25" height="28" viewBox="0 0 25 28" fill="none" xmlns="http://www.w3.org/2000/svg">
<path d="M5.46598 27.2261H0.414264V9.42679H5.46598V27.2261ZM2.9374 6.9988C1.32203 6.9988 0.0117798 5.53486 0.0117798 3.76743C0.0117798 2.91846 0.320014 2.10427 0.868675 1.50396C1.41734 0.903656 2.16148 0.566406 2.9374 0.566406C3.71333 0.566406 4.45747 0.903656 5.00613 1.50396C5.55479 2.10427 5.86303 2.91846 5.86303 3.76743C5.86303 5.53486 4.55224 6.9988 2.9374 6.9988ZM24.3729 27.2261H19.3321V18.5615C19.3321 16.4965 19.294 13.8484 16.7056 13.8484C14.0791 13.8484 13.6767 16.0919 13.6767 18.4127V27.2261H8.63038V9.42679H13.4754V11.8548H13.5461C14.2206 10.4563 15.868 8.98047 18.3259 8.98047C23.4385 8.98047 24.3784 12.6641 24.3784 17.4487V27.2261H24.3729Z" fill="white"/>
</svg>
