<svg width="110" height="110" viewBox="0 0 110 110" fill="none" xmlns="http://www.w3.org/2000/svg">
<path d="M75 0H35C15.67 0 0 15.67 0 35V75C0 94.33 15.67 110 35 110H75C94.33 110 110 94.33 110 75V35C110 15.67 94.33 0 75 0Z" fill="url(#paint0_linear_1098_3075)"/>
<mask id="path-2-outside-1_1098_3075" maskUnits="userSpaceOnUse" x="21" y="23" width="67" height="63" fill="black">
<rect fill="white" x="21" y="23" width="67" height="63"/>
<path d="M23.3286 79.2C26.8115 78.4074 30.3352 78.0451 33.9087 78.113C42.3511 78.2987 49.1584 82.0307 53.2256 84.2546L54.0047 84.6758H54.213C54.3081 84.7392 54.4123 84.7845 54.5255 84.8071C54.684 84.8071 54.838 84.7709 54.983 84.6984H55.0373L55.7303 84.318C59.7929 82.1485 66.5686 78.3621 75.0472 78.1764C78.6207 78.104 82.1444 78.4663 85.6273 79.2634C86.0259 79.4038 86.3837 79.3359 86.7007 79.0551C87.0223 78.7743 87.1355 78.4301 87.0495 78.0179L82.7105 38.0299C82.6833 37.7536 82.5611 37.5226 82.3572 37.3415C82.1489 37.1558 81.9043 37.0652 81.6281 37.0652C80.1832 37.3052 78.8245 37.7808 77.5427 38.4873L77.2936 35.8831C77.2665 35.6023 77.1487 35.3667 76.9404 35.1765C76.732 34.9863 76.4874 34.8957 76.2066 34.8957C72.461 35.0361 68.738 35.4211 65.0422 36.0461L66.4599 30.6202L67.5469 26.5167C67.6193 26.2314 67.5831 25.9642 67.4336 25.706C67.2842 25.4524 67.0713 25.2848 66.786 25.2078L62.832 24.0438C62.5376 23.9623 62.2613 23.994 61.9941 24.1435C61.7314 24.2929 61.5593 24.5194 61.4868 24.8138L60.3998 28.9036L58.1353 37.586C56.8762 37.9619 55.6759 38.4692 54.5255 39.1033C50.5716 36.7391 41.2233 35.1222 33.9269 34.8957C33.6551 34.8912 33.4105 34.9818 33.2067 35.1674C32.9984 35.3486 32.8761 35.5751 32.8444 35.8514L32.5545 38.356C30.8833 37.7627 29.1758 37.3324 27.423 37.0652C27.1467 37.0652 26.9066 37.1558 26.6983 37.3415C26.49 37.5226 26.3722 37.7536 26.3405 38.0299L22.0061 78.027C21.988 78.1991 22.0106 78.3666 22.0695 78.5297C22.1329 78.6927 22.2325 78.8332 22.3594 78.9464C22.4907 79.0641 22.6402 79.1457 22.8078 79.1864C22.9753 79.2317 23.1474 79.2363 23.315 79.2H23.3286ZM80.686 39.4973L84.726 76.7588C81.5556 76.1383 78.3535 75.8666 75.1242 75.9345C69.8386 76.1292 64.8067 77.3702 60.033 79.6529C63.0041 76.5188 66.7543 73.1445 70.8758 72.9588C73.6884 72.8773 76.4331 73.2713 79.1144 74.1319C79.4812 74.2496 79.8164 74.1908 80.1198 73.9462C80.4233 73.7016 80.5592 73.3891 80.5229 73.0041L77.7149 40.7881C78.6569 40.3216 79.83 39.8098 80.686 39.4973ZM63.3393 26.476L65.1736 26.9968L64.6074 28.9942L62.7777 28.4733L63.3393 26.476ZM62.2568 30.5658L64.0866 31.0957L55.2955 64.7339L53.6378 67.3291L53.443 64.1179L62.2568 30.5658ZM34.8961 37.0652C42.0069 37.4003 51.0245 39.0942 53.8778 41.2411C54.2356 41.5128 54.6161 41.5445 55.0147 41.3407L55.2411 41.1867C55.9431 40.7293 56.6905 40.3669 57.4876 40.1042L51.2736 63.7239C51.2645 63.8371 51.2645 63.9503 51.2736 64.0635L51.6314 70.7577C51.6404 70.9932 51.722 71.2015 51.8714 71.3872C52.0164 71.5729 52.2066 71.6952 52.433 71.7541C52.5236 71.7677 52.6142 71.7677 52.7048 71.7541C53.1034 71.7586 53.4113 71.591 53.6287 71.2559L57.1932 65.6805C57.2475 65.5763 57.2928 65.4721 57.3245 65.3634L59.3627 57.5823L73.1177 55.5125L72.7916 53.343L59.9469 55.3268L61.7677 48.3609C67.1891 47.4823 71.3287 46.8436 71.8586 46.8301V44.6606C71.0706 44.6606 65.5857 45.5392 62.3746 46.0601L64.39 38.3696C67.9771 37.7128 71.5914 37.2916 75.2329 37.1105L78.2584 71.6227C75.8081 70.9886 73.317 70.7078 70.7852 70.7894C64.9879 70.975 60.3138 76.0522 56.9124 79.7752C55.9884 80.7626 55.1777 81.6594 54.4848 82.3025C53.7782 81.6594 52.9675 80.7716 52.0526 79.7843C48.6512 76.0613 43.9771 70.9841 38.1797 70.7984C35.6842 70.7259 33.2339 71.0022 30.8198 71.6227L34.8961 37.0652ZM28.3877 39.375C29.4747 39.6377 31.1414 40.1359 32.3145 40.462L28.51 72.9815C28.4873 73.1626 28.51 73.3438 28.5779 73.5159C28.6458 73.6835 28.7545 73.8284 28.895 73.9462C29.0399 74.0639 29.2029 74.1409 29.3841 74.1772C29.5653 74.2089 29.7419 74.1998 29.9185 74.1409C32.5953 73.2804 35.3445 72.8909 38.1571 72.9724C42.3194 73.0992 46.0696 76.5278 48.9954 79.6665C44.2307 77.3793 39.2079 76.1383 33.9269 75.9435C30.693 75.8801 27.4819 76.1564 24.3024 76.7679L28.3877 39.375Z"/>
</mask>
<path d="M23.3286 79.2C26.8115 78.4074 30.3352 78.0451 33.9087 78.113C42.3511 78.2987 49.1584 82.0307 53.2256 84.2546L54.0047 84.6758H54.213C54.3081 84.7392 54.4123 84.7845 54.5255 84.8071C54.684 84.8071 54.838 84.7709 54.983 84.6984H55.0373L55.7303 84.318C59.7929 82.1485 66.5686 78.3621 75.0472 78.1764C78.6207 78.104 82.1444 78.4663 85.6273 79.2634C86.0259 79.4038 86.3837 79.3359 86.7007 79.0551C87.0223 78.7743 87.1355 78.4301 87.0495 78.0179L82.7105 38.0299C82.6833 37.7536 82.5611 37.5226 82.3572 37.3415C82.1489 37.1558 81.9043 37.0652 81.6281 37.0652C80.1832 37.3052 78.8245 37.7808 77.5427 38.4873L77.2936 35.8831C77.2665 35.6023 77.1487 35.3667 76.9404 35.1765C76.732 34.9863 76.4874 34.8957 76.2066 34.8957C72.461 35.0361 68.738 35.4211 65.0422 36.0461L66.4599 30.6202L67.5469 26.5167C67.6193 26.2314 67.5831 25.9642 67.4336 25.706C67.2842 25.4524 67.0713 25.2848 66.786 25.2078L62.832 24.0438C62.5376 23.9623 62.2613 23.994 61.9941 24.1435C61.7314 24.2929 61.5593 24.5194 61.4868 24.8138L60.3998 28.9036L58.1353 37.586C56.8762 37.9619 55.6759 38.4692 54.5255 39.1033C50.5716 36.7391 41.2233 35.1222 33.9269 34.8957C33.6551 34.8912 33.4105 34.9818 33.2067 35.1674C32.9984 35.3486 32.8761 35.5751 32.8444 35.8514L32.5545 38.356C30.8833 37.7627 29.1758 37.3324 27.423 37.0652C27.1467 37.0652 26.9066 37.1558 26.6983 37.3415C26.49 37.5226 26.3722 37.7536 26.3405 38.0299L22.0061 78.027C21.988 78.1991 22.0106 78.3666 22.0695 78.5297C22.1329 78.6927 22.2325 78.8332 22.3594 78.9464C22.4907 79.0641 22.6402 79.1457 22.8078 79.1864C22.9753 79.2317 23.1474 79.2363 23.315 79.2H23.3286ZM80.686 39.4973L84.726 76.7588C81.5556 76.1383 78.3535 75.8666 75.1242 75.9345C69.8386 76.1292 64.8067 77.3702 60.033 79.6529C63.0041 76.5188 66.7543 73.1445 70.8758 72.9588C73.6884 72.8773 76.4331 73.2713 79.1144 74.1319C79.4812 74.2496 79.8164 74.1908 80.1198 73.9462C80.4233 73.7016 80.5592 73.3891 80.5229 73.0041L77.7149 40.7881C78.6569 40.3216 79.83 39.8098 80.686 39.4973ZM63.3393 26.476L65.1736 26.9968L64.6074 28.9942L62.7777 28.4733L63.3393 26.476ZM62.2568 30.5658L64.0866 31.0957L55.2955 64.7339L53.6378 67.3291L53.443 64.1179L62.2568 30.5658ZM34.8961 37.0652C42.0069 37.4003 51.0245 39.0942 53.8778 41.2411C54.2356 41.5128 54.6161 41.5445 55.0147 41.3407L55.2411 41.1867C55.9431 40.7293 56.6905 40.3669 57.4876 40.1042L51.2736 63.7239C51.2645 63.8371 51.2645 63.9503 51.2736 64.0635L51.6314 70.7577C51.6404 70.9932 51.722 71.2015 51.8714 71.3872C52.0164 71.5729 52.2066 71.6952 52.433 71.7541C52.5236 71.7677 52.6142 71.7677 52.7048 71.7541C53.1034 71.7586 53.4113 71.591 53.6287 71.2559L57.1932 65.6805C57.2475 65.5763 57.2928 65.4721 57.3245 65.3634L59.3627 57.5823L73.1177 55.5125L72.7916 53.343L59.9469 55.3268L61.7677 48.3609C67.1891 47.4823 71.3287 46.8436 71.8586 46.8301V44.6606C71.0706 44.6606 65.5857 45.5392 62.3746 46.0601L64.39 38.3696C67.9771 37.7128 71.5914 37.2916 75.2329 37.1105L78.2584 71.6227C75.8081 70.9886 73.317 70.7078 70.7852 70.7894C64.9879 70.975 60.3138 76.0522 56.9124 79.7752C55.9884 80.7626 55.1777 81.6594 54.4848 82.3025C53.7782 81.6594 52.9675 80.7716 52.0526 79.7843C48.6512 76.0613 43.9771 70.9841 38.1797 70.7984C35.6842 70.7259 33.2339 71.0022 30.8198 71.6227L34.8961 37.0652ZM28.3877 39.375C29.4747 39.6377 31.1414 40.1359 32.3145 40.462L28.51 72.9815C28.4873 73.1626 28.51 73.3438 28.5779 73.5159C28.6458 73.6835 28.7545 73.8284 28.895 73.9462C29.0399 74.0639 29.2029 74.1409 29.3841 74.1772C29.5653 74.2089 29.7419 74.1998 29.9185 74.1409C32.5953 73.2804 35.3445 72.8909 38.1571 72.9724C42.3194 73.0992 46.0696 76.5278 48.9954 79.6665C44.2307 77.3793 39.2079 76.1383 33.9269 75.9435C30.693 75.8801 27.4819 76.1564 24.3024 76.7679L28.3877 39.375Z" fill="white"/>
<path d="M23.3286 79.2C26.8115 78.4074 30.3352 78.0451 33.9087 78.113C42.3511 78.2987 49.1584 82.0307 53.2256 84.2546L54.0047 84.6758H54.213C54.3081 84.7392 54.4123 84.7845 54.5255 84.8071C54.684 84.8071 54.838 84.7709 54.983 84.6984H55.0373L55.7303 84.318C59.7929 82.1485 66.5686 78.3621 75.0472 78.1764C78.6207 78.104 82.1444 78.4663 85.6273 79.2634C86.0259 79.4038 86.3837 79.3359 86.7007 79.0551C87.0223 78.7743 87.1355 78.4301 87.0495 78.0179L82.7105 38.0299C82.6833 37.7536 82.5611 37.5226 82.3572 37.3415C82.1489 37.1558 81.9043 37.0652 81.6281 37.0652C80.1832 37.3052 78.8245 37.7808 77.5427 38.4873L77.2936 35.8831C77.2665 35.6023 77.1487 35.3667 76.9404 35.1765C76.732 34.9863 76.4874 34.8957 76.2066 34.8957C72.461 35.0361 68.738 35.4211 65.0422 36.0461L66.4599 30.6202L67.5469 26.5167C67.6193 26.2314 67.5831 25.9642 67.4336 25.706C67.2842 25.4524 67.0713 25.2848 66.786 25.2078L62.832 24.0438C62.5376 23.9623 62.2613 23.994 61.9941 24.1435C61.7314 24.2929 61.5593 24.5194 61.4868 24.8138L60.3998 28.9036L58.1353 37.586C56.8762 37.9619 55.6759 38.4692 54.5255 39.1033C50.5716 36.7391 41.2233 35.1222 33.9269 34.8957C33.6551 34.8912 33.4105 34.9818 33.2067 35.1674C32.9984 35.3486 32.8761 35.5751 32.8444 35.8514L32.5545 38.356C30.8833 37.7627 29.1758 37.3324 27.423 37.0652C27.1467 37.0652 26.9066 37.1558 26.6983 37.3415C26.49 37.5226 26.3722 37.7536 26.3405 38.0299L22.0061 78.027C21.988 78.1991 22.0106 78.3666 22.0695 78.5297C22.1329 78.6927 22.2325 78.8332 22.3594 78.9464C22.4907 79.0641 22.6402 79.1457 22.8078 79.1864C22.9753 79.2317 23.1474 79.2363 23.315 79.2H23.3286ZM80.686 39.4973L84.726 76.7588C81.5556 76.1383 78.3535 75.8666 75.1242 75.9345C69.8386 76.1292 64.8067 77.3702 60.033 79.6529C63.0041 76.5188 66.7543 73.1445 70.8758 72.9588C73.6884 72.8773 76.4331 73.2713 79.1144 74.1319C79.4812 74.2496 79.8164 74.1908 80.1198 73.9462C80.4233 73.7016 80.5592 73.3891 80.5229 73.0041L77.7149 40.7881C78.6569 40.3216 79.83 39.8098 80.686 39.4973ZM63.3393 26.476L65.1736 26.9968L64.6074 28.9942L62.7777 28.4733L63.3393 26.476ZM62.2568 30.5658L64.0866 31.0957L55.2955 64.7339L53.6378 67.3291L53.443 64.1179L62.2568 30.5658ZM34.8961 37.0652C42.0069 37.4003 51.0245 39.0942 53.8778 41.2411C54.2356 41.5128 54.6161 41.5445 55.0147 41.3407L55.2411 41.1867C55.9431 40.7293 56.6905 40.3669 57.4876 40.1042L51.2736 63.7239C51.2645 63.8371 51.2645 63.9503 51.2736 64.0635L51.6314 70.7577C51.6404 70.9932 51.722 71.2015 51.8714 71.3872C52.0164 71.5729 52.2066 71.6952 52.433 71.7541C52.5236 71.7677 52.6142 71.7677 52.7048 71.7541C53.1034 71.7586 53.4113 71.591 53.6287 71.2559L57.1932 65.6805C57.2475 65.5763 57.2928 65.4721 57.3245 65.3634L59.3627 57.5823L73.1177 55.5125L72.7916 53.343L59.9469 55.3268L61.7677 48.3609C67.1891 47.4823 71.3287 46.8436 71.8586 46.8301V44.6606C71.0706 44.6606 65.5857 45.5392 62.3746 46.0601L64.39 38.3696C67.9771 37.7128 71.5914 37.2916 75.2329 37.1105L78.2584 71.6227C75.8081 70.9886 73.317 70.7078 70.7852 70.7894C64.9879 70.975 60.3138 76.0522 56.9124 79.7752C55.9884 80.7626 55.1777 81.6594 54.4848 82.3025C53.7782 81.6594 52.9675 80.7716 52.0526 79.7843C48.6512 76.0613 43.9771 70.9841 38.1797 70.7984C35.6842 70.7259 33.2339 71.0022 30.8198 71.6227L34.8961 37.0652ZM28.3877 39.375C29.4747 39.6377 31.1414 40.1359 32.3145 40.462L28.51 72.9815C28.4873 73.1626 28.51 73.3438 28.5779 73.5159C28.6458 73.6835 28.7545 73.8284 28.895 73.9462C29.0399 74.0639 29.2029 74.1409 29.3841 74.1772C29.5653 74.2089 29.7419 74.1998 29.9185 74.1409C32.5953 73.2804 35.3445 72.8909 38.1571 72.9724C42.3194 73.0992 46.0696 76.5278 48.9954 79.6665C44.2307 77.3793 39.2079 76.1383 33.9269 75.9435C30.693 75.8801 27.4819 76.1564 24.3024 76.7679L28.3877 39.375Z" stroke="white" stroke-width="0.732604" mask="url(#path-2-outside-1_1098_3075)"/>
<path d="M51.0755 46.9322C48.9848 46.6167 38.3787 45.0193 37.3027 45.0193V46.9322C38.0769 46.9322 45.9583 48.0983 50.7431 48.845L51.0755 46.9322Z" fill="white"/>
<path d="M35.7726 55.7192L36.1059 53.4358L50.3105 55.7433L49.9772 58.0267L35.7726 55.7192Z" fill="white"/>
<path d="M35.0073 65.2857L35.3406 63.3828L49.5452 65.3097L49.2119 67.2086L35.0073 65.2857Z" fill="white"/>
<path d="M59.4922 65.3057L73.6968 63.3828L74.0301 65.2816L59.8255 67.2086L59.4922 65.3057Z" fill="white"/>
<defs>
<linearGradient id="paint0_linear_1098_3075" x1="91.5" y1="110" x2="17.5" y2="8.5" gradientUnits="userSpaceOnUse">
<stop stop-color="#FFCC40"/>
<stop offset="1" stop-color="#FFCC40" stop-opacity="0.5"/>
</linearGradient>
</defs>
</svg>
