<svg width="110" height="110" viewBox="0 0 110 110" fill="none" xmlns="http://www.w3.org/2000/svg">
<path d="M75 0H35C15.67 0 0 15.67 0 35V75C0 94.33 15.67 110 35 110H75C94.33 110 110 94.33 110 75V35C110 15.67 94.33 0 75 0Z" fill="url(#paint0_linear_1098_3084)"/>
<path d="M67.2985 74.757H67.0695V74.986V76.7663V76.9953H67.2985H69.0788C69.4717 76.9953 69.8583 76.8974 70.193 76.7559L70.4766 76.636L70.2801 76.399L68.9881 74.8399L68.9194 74.757H68.8118H67.2985Z" fill="white" stroke="white" stroke-width="0.457878"/>
<path d="M69.7431 40.6957V40.8083L69.8323 40.877C70.3993 41.3142 70.9259 41.7978 71.4558 42.3277L71.4557 42.3278L71.4605 42.3323C71.4806 42.3513 71.5005 42.3712 71.5232 42.3938L71.5242 42.3948C71.5458 42.4164 71.57 42.4406 71.5952 42.4645L71.9814 42.8292V42.2981V28.6731C71.9814 27.0766 70.6759 25.7711 69.0793 25.7711H37.9075C36.3107 25.7711 35.008 27.0769 35.008 28.6731V30.4535V30.6824H35.2369H37.0173H37.2463V30.4535V28.6731C37.2463 28.3078 37.5439 28.0093 37.9075 28.0093H69.0793C69.4438 28.0093 69.7431 28.3087 69.7431 28.6731V40.6957Z" fill="white" stroke="white" stroke-width="0.457878"/>
<path d="M84.1467 72.9396L84.1448 72.938L74.5257 64.9237L74.3263 64.7576L74.1863 64.9761C74.1075 65.0992 74.03 65.2232 73.9529 65.3467C73.716 65.726 73.4822 66.1003 73.2211 66.4267L73.081 66.6019L73.2534 66.7456L74.129 67.4753L70.5207 71.0836L69.7885 70.2074L69.6511 70.043L69.4779 70.1693C68.9873 70.527 68.5084 70.8739 68.0354 71.1326L67.7912 71.2662L67.9694 71.48L75.9819 81.0971C75.9822 81.0974 75.9825 81.0978 75.9827 81.0981C77.005 82.3535 78.536 83.0929 80.1548 83.1853L80.1548 83.1854L80.1599 83.1856C81.4526 83.2304 82.7962 82.8618 83.8664 82.0733C85.3971 80.9607 86.3671 79.016 86.2743 77.0681L86.2745 77.0681L86.2737 77.0591C86.1363 75.4843 85.3962 74.0042 84.1467 72.9396ZM80.2231 80.9909L80.2229 80.9909C79.217 80.9503 78.2983 80.4894 77.6733 79.738L77.6726 79.7371L74.5546 76.0243L78.9784 71.6004L82.6939 74.7161L82.6938 74.7162L82.6992 74.7204C83.4851 75.3406 83.9043 76.2569 83.9475 77.2668L83.9474 77.2668L83.9481 77.276C84.0312 78.2733 83.6567 79.2332 82.9462 79.9437C82.2342 80.6557 81.2716 81.0341 80.2231 80.9909ZM73.1033 74.244L71.926 72.8183L75.8182 68.9261L77.2462 70.1035L73.1033 74.244Z" fill="white" stroke="white" stroke-width="0.457878"/>
<path d="M60.1802 73.8703L60.1045 73.7684L59.978 73.7786C59.9484 73.781 59.9189 73.7834 59.8893 73.7858C59.3811 73.8269 58.8858 73.8669 58.3915 73.8669C57.0718 73.8669 55.754 73.7337 54.4349 73.4277L54.4093 73.4218H54.3831H35.2365C34.62 73.4218 34.1148 73.9228 34.1148 74.5409C34.1148 75.1561 34.6196 75.6601 35.2365 75.6601H59.2817C59.8986 75.6601 60.4034 75.1561 60.4034 74.5409C60.4034 74.3186 60.3446 74.0916 60.1802 73.8703Z" fill="white" stroke="white" stroke-width="0.457878"/>
<path d="M45.3007 68.9809H45.8534L45.4626 68.59L45.3278 68.4552C44.7979 67.9253 44.3144 67.3989 43.8774 66.8296L43.8087 66.7401H43.6958H35.2365C34.6196 66.7401 34.1148 67.244 34.1148 67.8592C34.1148 68.4765 34.6192 68.9809 35.2365 68.9809H45.3007Z" fill="white" stroke="white" stroke-width="0.457878"/>
<path d="M40.9362 62.2996H41.2705L41.1497 61.9879C40.9297 61.4203 40.7539 60.8483 40.5765 60.2274L40.529 60.0613H40.3563H35.2365C34.62 60.0613 34.1148 60.5623 34.1148 61.1805C34.1148 61.7986 34.62 62.2996 35.2365 62.2996H40.9362Z" fill="white" stroke="white" stroke-width="0.457878"/>
<path d="M39.6874 55.6205H39.9164V55.3916C39.9164 54.8217 39.9614 54.2071 40.0047 53.6283L40.0232 53.3823H39.7764H35.2365C34.62 53.3823 34.1148 53.8832 34.1148 54.5014C34.1148 55.1166 34.6196 55.6205 35.2365 55.6205H39.6874Z" fill="white" stroke="white" stroke-width="0.457878"/>
<path d="M40.9362 48.9415H41.0981L41.1521 48.7889C41.3687 48.1765 41.6305 47.61 41.9389 47.0384L42.121 46.7007H41.7374H35.2365C34.6196 46.7007 34.1148 47.2047 34.1148 47.8199C34.1148 48.4372 34.6192 48.9415 35.2365 48.9415H40.9362Z" fill="white" stroke="white" stroke-width="0.457878"/>
<path d="M45.789 41.815H45.8797L45.9458 41.7529C46.6466 41.0946 47.394 40.525 48.1873 39.9962L48.8164 39.5767H48.0603H35.2365C34.62 39.5767 34.1148 40.0777 34.1148 40.6959C34.1148 41.314 34.62 41.815 35.2365 41.815H45.789Z" fill="white" stroke="white" stroke-width="0.457878"/>
<path d="M63.5062 37.4888V37.6615L63.6722 37.7089C64.2612 37.8772 64.8117 38.0873 65.3711 38.3009L65.4364 38.3258L65.747 38.4443V38.1119V34.9072C65.747 33.3107 64.4415 32.0052 62.8449 32.0052H31.6731C30.0766 32.0052 28.7711 33.3107 28.7711 34.9072V80.3297C28.7711 81.9265 30.0769 83.2292 31.6731 83.2292H62.8449C64.4412 83.2292 65.747 81.9265 65.747 80.3297V72.669V72.3353L65.4356 72.4554C64.8552 72.6794 64.2842 72.8972 63.6722 73.072L63.5062 73.1195V73.2921V80.3297C63.5062 80.6941 63.2094 80.991 62.8449 80.991H31.6731C31.3087 80.991 31.0119 80.6941 31.0119 80.3297V34.9072C31.0119 34.5428 31.3087 34.246 31.6731 34.246H62.8449C63.2094 34.246 63.5062 34.5428 63.5062 34.9072V37.4888Z" fill="white" stroke="white" stroke-width="0.457878"/>
<path d="M70.5327 67.5329L70.5328 67.5328C77.2121 60.8509 77.2121 49.9296 70.5328 43.2503C63.8534 36.571 52.9754 36.571 46.296 43.2503C39.6145 49.9293 39.6141 60.8065 46.2949 67.4859C49.5913 70.872 54.0158 72.5417 58.3915 72.5417C62.7704 72.5417 67.1914 70.8716 70.5327 67.5329ZM47.8667 65.9176L47.8654 65.9164C42.0321 60.1282 42.0321 50.655 47.8654 44.8667L47.8661 44.8661C50.7612 41.9709 54.5757 40.5229 58.3915 40.5229C62.2074 40.5229 66.0243 41.971 68.9169 44.866L68.917 44.8661C74.7511 50.6977 74.7511 60.1286 68.917 65.9628C63.1287 71.7511 53.655 71.7511 47.8667 65.9176Z" fill="white" stroke="white" stroke-width="0.457878"/>
<path d="M65.6889 48.2531L65.6886 48.2529C65.1947 47.9226 64.47 48.0228 64.1257 48.5383L56.2131 59.9492L52.4408 56.6439L52.4403 56.6435C51.9873 56.2487 51.2661 56.3051 50.8717 56.754L50.8717 56.754L50.8711 56.7547C50.4767 57.2072 50.532 57.9313 50.9819 58.3237C50.982 58.3238 50.9822 58.3239 50.9823 58.324L55.7022 62.4666L55.7092 62.4728L55.7167 62.4783C55.9145 62.6253 56.1402 62.7448 56.4331 62.7448H56.4334H56.4336H56.4339H56.4341H56.4344H56.4346H56.4349H56.4351H56.4354H56.4356H56.4359H56.4361H56.4364H56.4367H56.4369H56.4372H56.4374H56.4377H56.4379H56.4382H56.4384H56.4387H56.4389H56.4392H56.4394H56.4397H56.44H56.4402H56.4405H56.4407H56.441H56.4412H56.4415H56.4417H56.442H56.4422H56.4425H56.4428H56.443H56.4433H56.4435H56.4438H56.444H56.4443H56.4445H56.4448H56.445H56.4453H56.4455H56.4458H56.4461H56.4463H56.4466H56.4468H56.4471H56.4473H56.4476H56.4478H56.4481H56.4483H56.4486H56.4488H56.4491H56.4493H56.4496H56.4498H56.4501H56.4504H56.4506H56.4509H56.4511H56.4514H56.4516H56.4519H56.4521H56.4524H56.4526H56.4529H56.4531H56.4534H56.4536H56.4539H56.4541H56.4544H56.4546H56.4549H56.4551H56.4554H56.4556H56.4559H56.4561H56.4564H56.4566H56.4569H56.4571H56.4574H56.4576H56.4579H56.4581H56.4584H56.4586H56.4589H56.4591H56.4594H56.4596H56.4599H56.4601H56.4603H56.4606H56.4608H56.4611H56.4613H56.4616H56.4618H56.4621H56.4623H56.4626H56.4628H56.4631H56.4633H56.4635H56.4638H56.464H56.4643H56.4645H56.4648H56.465H56.4653H56.4655H56.4657H56.466H56.4662H56.4665H56.4667H56.4669H56.4672H56.4674H56.4677H56.4679H56.4682H56.4684H56.4686H56.4689H56.4691H56.4694H56.4696H56.4698H56.4701H56.4703H56.4705H56.4708H56.471H56.4713H56.4715H56.4717H56.472H56.4722H56.4724H56.4727H56.4729H56.4731H56.4734H56.4736H56.4738H56.4741H56.4743H56.4745H56.4748H56.475H56.4752H56.4755H56.4757H56.4759H56.4762H56.4764H56.4766H56.4769H56.4771H56.4773H56.4775H56.4778H56.478H56.4782H56.4785H56.4787H56.4789H56.4791H56.4794H56.4796H56.4798H56.48H56.4803H56.4805H56.4807H56.4809H56.4812H56.4814H56.4816H56.4818H56.4821H56.4823H56.4825H56.4827H56.4829H56.4832H56.4834H56.4836H56.4838H56.484H56.4843H56.4845H56.4847H56.4849H56.4851H56.4853H56.4856H56.4858H56.486H56.4862H56.4864H56.4866H56.4868H56.4871H56.4873H56.4875H56.4877H56.4879H56.4881H56.4883H56.4885H56.4887H56.4889H56.4892H56.4894H56.4896H56.4898H56.49H56.4902H56.4904H56.4906H56.4908H56.491H56.4912H56.4914H56.4916H56.4918H56.492H56.4922H56.4924H56.4926H56.4928H56.493H56.4932H56.4934H56.4936H56.4938H56.494H56.4942H56.4944H56.4946H56.4948H56.495H56.4952H56.4954H56.4956H56.4958H56.496H56.4962H56.4963H56.4965H56.4967H56.4969H56.4971H56.4973H56.4975H56.4977H56.4979H56.498H56.4982H56.4984H56.4986H56.4988H56.499H56.4992H56.4993H56.4995H56.4997H56.4999H56.5001H56.5002H56.5004H56.5006H56.5008H56.501H56.5011H56.5013H56.5015H56.5017H56.5018H56.502H56.5022H56.5023H56.5025H56.5027H56.5029H56.503H56.5032H56.5034H56.5035H56.5037H56.5039H56.504H56.5042H56.5044H56.5045H56.5047H56.5049H56.505H56.5052H56.5054H56.5055H56.5057H56.5058H56.506H56.5062H56.5063H56.5065H56.5066H56.5068H56.5069H56.5071H56.5072H56.5074H56.5076H56.5077H56.5079H56.508H56.5082H56.5083H56.5085H56.5086H56.5087H56.5089H56.509H56.5092H56.5093H56.5095H56.5096H56.5098H56.5099H56.51H56.5102H56.5103H56.5105H56.5106H56.5107H56.5109H56.511H56.5111H56.5113H56.5114H56.5115H56.5117H56.5118H56.5119H56.5121H56.5122H56.5123H56.5125H56.5126H56.5127H56.5128H56.513H56.5131H56.5132H56.5133H56.5135H56.5136H56.5137H56.5138H56.5139H56.5141H56.5142H56.5143H56.5144H56.5145H56.5146H56.5148H56.5149H56.515H56.5151H56.5152H56.5153H56.5154H56.5155H56.5156H56.5157H56.5158H56.516H56.5161H56.5162H56.5163H56.5164H56.5165H56.5166H56.5167H56.5168H56.5169H56.517H56.5171H56.5171H56.5172H56.5173H56.5174H56.5175H56.5176H56.5177H56.5178H56.5179H56.518H56.5181H56.5181H56.5182H56.5183H56.5184H56.5185H56.5186H56.5186H56.5187H56.5188H56.5189H56.519H56.519H56.5191H56.5192H56.5193H56.5193H56.5194H56.5195H56.5195H56.5196H56.5197H56.5197H56.5198H56.5199H56.5199H56.52H56.5201H56.5201H56.5202H56.5203H56.5203H56.5204H56.5204H56.5205H56.5205H56.5206H56.5206H56.5207H56.5208H56.5208H56.5209H56.5209H56.521H56.521H56.521H56.5211H56.5211H56.5212H56.5212H56.5213H56.5213H56.5213H56.5214H56.5214H56.5215H56.5215H56.5215H56.5216H56.5216H56.5216H56.5217H56.5217H56.5217H56.5217H56.5218H56.5218H56.5218H56.5218H56.5219H56.5219H56.5219H56.5219H56.522H56.522H56.522H56.522H56.522H56.522H56.522H56.5221H56.5221H56.5221H56.5221H56.5221H56.5221H56.5221H56.5221H56.5405L56.5587 62.7418C56.8789 62.69 57.1545 62.5268 57.3278 62.2979L57.3279 62.2981L57.3334 62.2902L65.973 49.823C65.973 49.8229 65.973 49.8229 65.9731 49.8228C66.3593 49.2686 66.1928 48.5912 65.6889 48.2531Z" fill="white" stroke="white" stroke-width="0.457878"/>
<defs>
<linearGradient id="paint0_linear_1098_3084" x1="94.5" y1="101" x2="18.5" y2="7.5" gradientUnits="userSpaceOnUse">
<stop stop-color="#25D9D9"/>
<stop offset="1" stop-color="#25D9D9" stop-opacity="0.5"/>
</linearGradient>
</defs>
</svg>
