<svg width="35" height="35" viewBox="0 0 35 35" fill="none" xmlns="http://www.w3.org/2000/svg">
<path d="M4.1575 25.9307C5.50257 26.6747 15.2381 32.2865 22.1615 27.9612C29.0842 23.6359 28.7021 16.184 28.7021 12.7686C29.3297 11.455 30.6545 10.787 30.6545 7.23077C29.3534 8.4329 28.0599 8.84151 26.7741 8.458C25.5148 6.53767 23.782 5.68767 21.5751 5.90941C18.2658 6.24202 17.0553 9.4886 17.4116 13.6898C12.3088 16.2697 8.30777 11.8189 6.24519 8.458C5.55626 11.1049 4.89244 14.2832 6.24519 17.7982C7.14748 20.1425 9.31675 22.1235 12.7516 23.7433C9.27003 25.6295 6.40556 26.3595 4.1575 25.9307Z" fill="white"/>
</svg>
