<svg width="33" height="37" viewBox="0 0 33 37" fill="none" xmlns="http://www.w3.org/2000/svg">
<g clip-path="url(#clip0_1098_3266)">
<path d="M31.4376 9.67202C31.2771 8.97584 30.9711 8.34175 30.5494 7.83113C30.1276 7.32051 29.6043 6.95067 29.0301 6.75742C26.8748 6.05838 18.2106 6.05838 18.2106 6.05838C18.2106 6.05838 9.56278 6.04161 7.38506 6.75742C6.81181 6.95152 6.28954 7.32175 5.86871 7.83232C5.44787 8.34289 5.14272 8.97654 4.98274 9.67202C4.57345 12.3489 4.37187 15.0665 4.38065 17.7891C4.37665 20.4985 4.5782 23.2027 4.98274 25.8674C5.14324 26.5632 5.44848 27.1973 5.86917 27.7088C6.28985 28.2203 6.81185 28.592 7.38506 28.7882C9.54032 29.4873 18.2106 29.4873 18.2106 29.4873C18.2106 29.4873 26.8533 29.4873 29.0301 28.7882C29.6042 28.5929 30.1273 28.2215 30.5489 27.71C30.9705 27.1985 31.2766 26.5639 31.4376 25.8674C31.8341 23.2043 32.0276 20.4962 32.0138 17.7891C32.0276 15.0642 31.8384 12.3519 31.4376 9.67202ZM15.4429 22.806V12.7501L22.655 17.7891L15.4429 22.806Z" fill="white"/>
</g>
<defs>
<clipPath id="clip0_1098_3266">
<rect width="31.2386" height="35.7012" fill="white" transform="translate(0.775909 0.47998)"/>
</clipPath>
</defs>
</svg>
